<?xml version="1.0" encoding="UTF-8"?>
<svg width="32px" height="32px" viewBox="0 0 32 32" version="1.1" xmlns="http://www.w3.org/2000/svg" xmlns:xlink="http://www.w3.org/1999/xlink">
    <title>icon_JT</title>
    <g id="页面-1" stroke="none" stroke-width="1" fill="none" fill-rule="evenodd">
        <g id="画板" transform="translate(-316, -130)">
            <g id="icon_JT" transform="translate(316, 130)">
                <rect id="矩形" fill="#EBECEE" x="0" y="0" width="32" height="32" rx="4"></rect>
                <path d="M11.9925915,20.0064 L11.9925915,8.78650448 C11.9925915,8.35213005 11.6404614,8 11.206087,8 C10.7717126,8 10.4195825,8.35213005 10.4195825,8.78650448 L10.4195825,10.4208 L10.4195825,10.4208 L8.7864,10.4208 C8.35208327,10.4208 8,10.7728833 8,11.2072 C8,11.6415167 8.35208327,11.9936 8.7864,11.9936 L10.4195825,11.9936 L10.4195825,11.9936 L10.4195825,20.0072 C10.4341166,20.8691282 11.1296861,21.5646053 11.9925915,21.58 L20.0074085,21.58 L20.0074085,23.2134955 C20.0074085,23.6478699 20.3595386,24 20.793913,24 C21.2282874,24 21.5804175,23.6478699 21.5804175,23.2134955 L21.5804175,21.5792 L21.5804175,21.5792 L23.2136,21.5792 C23.6479167,21.5792 24,21.2271167 24,20.7928 C24,20.3584833 23.6479167,20.0064 23.2136,20.0064 L11.9925915,20.0064 L11.9925915,20.0064 Z" id="路径" fill="#111111" fill-rule="nonzero"></path>
                <path d="M20.7931121,18.4 C21.2274865,18.4 21.5796166,18.0478699 21.5796166,17.6134955 L21.5796166,12 L21.5796166,12 C21.5650825,11.1380718 20.869513,10.4425947 20.0066076,10.4272 L14.3928474,10.4272 C13.9585307,10.4272 13.6064474,10.7792833 13.6064474,11.2136 C13.6064474,11.6479167 13.9585307,12 14.3928474,12 L20.0138159,12 L20.0138159,12 L20.0074934,17.613496 C20.0070048,18.0473812 20.358342,18.3995108 20.7922272,18.3999995 C20.7925222,18.3999998 20.7928171,18.4 20.7931121,18.4 Z" id="路径" fill="#111111" fill-rule="nonzero"></path>
                <path d="M13.2654534,15.3164886 L18.7654534,15.3164886 C19.1796669,15.3164886 19.5154534,15.652275 19.5154534,16.0664886 C19.5154534,16.4807021 19.1796669,16.8164886 18.7654534,16.8164886 L13.2654534,16.8164886 C12.8512398,16.8164886 12.5154534,16.4807021 12.5154534,16.0664886 C12.5154534,15.652275 12.8512398,15.3164886 13.2654534,15.3164886 Z" id="矩形" fill="#909397" transform="translate(16.0155, 16.0665) rotate(-45) translate(-16.0155, -16.0665)"></path>
            </g>
        </g>
    </g>
</svg>